<svg width="500" height="500" viewBox="0 0 500 500" fill="none" xmlns="http://www.w3.org/2000/svg">
<rect width="500" height="500" fill="white"/>
<g clip-path="url(#clip0_1_3)">
<path d="M264.75 68.9999C264.583 69.5833 264.917 71.1666 265.583 72.4999C267.167 75.5833 266.333 79.2499 264.333 78.2499C263.583 77.9166 260.333 77.5833 257.083 77.6666C251.25 77.6666 251.167 77.7499 236.5 85.9999C222.917 93.6666 221.5 94.6666 218.667 98.8333C217 101.333 213.833 105.667 211.75 108.417C208.417 112.917 208 113.833 208.167 117.417C208.25 119.583 208.667 123 209.167 124.917C209.583 126.833 210 136.25 210 145.833C210 162.333 210.667 168.333 212.75 171.083C213.167 171.667 215.167 172.167 217.167 172.167H220.833V186.25C220.833 201.583 220.917 201.333 216 201.333C214.75 201.333 209.083 202.5 203.333 203.917L192.917 206.5L182.75 202.583L172.5 198.583L168.167 199.833C164.333 200.917 163.583 201.5 162.167 204.333C160.083 208.833 158.417 210.5 156.167 210.5C154.25 210.5 144.167 214.167 117.167 224.667C108.5 228.083 103.333 229.667 102.083 229.333C101 229.083 99.0833 229.25 97.75 229.75C96.5 230.333 92.8333 231 89.5833 231.417C86.4167 231.833 82.25 232.333 80.4167 232.583L77.0833 233.083L73 222.5C60.1667 189.167 58.6667 179.25 63.4167 160.417C64.9167 154.75 66.0833 148 66.1667 145.5C66.1667 140.667 64.0833 133.333 61.4167 129.5C59.8333 127.083 57.5833 112.833 57.5 104.667C57.5 98.4999 55.4167 85.2499 54 82.4999C52.3333 78.9999 50.4167 78.1666 47.6667 79.6666L45.4167 80.9999V93.6666V106.333H43.25C39.8333 106.333 37.5833 108.75 36.25 113.75C35.5833 116.25 34.1667 119.25 33.0833 120.417C32 121.583 30.25 124.083 29.1667 125.833C28.0833 127.583 25.5833 130.75 23.5 132.75C19.8333 136.417 19.8333 136.583 20.25 140.833C20.75 145.75 25.25 160.25 27.75 165.083C30.3333 170 30.8333 176.333 31.0833 208C31.25 238.667 32.1667 247.833 36.8333 265.333C38.5 271.833 38.8333 272.5 42 274.5C43.9167 275.667 48.25 277.833 51.75 279.333C57.5833 281.917 58.8333 282.167 71.25 282.75L84.5 283.417L87.8333 292.667C89.75 297.75 91.8333 302.833 92.5 303.833L93.8333 305.75L102.5 303.917C107.333 302.833 113.917 300.833 117.083 299.5C120.333 298.083 125.667 296.5 129.083 296C134.667 295.25 135.417 295.25 138.25 296.917C143 299.667 145.833 304.5 147.083 312.417C149.667 328.167 152 350.75 152.083 360.5C152.25 377.083 154.167 411.583 155.083 413.75L155.917 415.75L185.25 415.25C201.417 414.917 242.583 414.667 276.917 414.667H339.167V399.833C339.167 384.583 339.75 379.25 344.917 346.75C346.25 338.5 347.833 327.417 348.417 322.167C349.417 312.833 349.5 312.5 352.917 308C355.167 305.167 358.083 302.5 360.75 301.083L365 298.75L372.667 300.083C376.917 300.75 385.25 302.75 391.167 304.333C404 307.917 404.5 307.833 409.167 299.5L412.167 294.25L424.167 293.833L436.25 293.417L445.833 288.75C451.083 286.167 456.167 283.25 457 282.25C459 280 459.833 271.25 459.917 251.75C460 237.083 458.667 222.583 455.75 205.667C454.75 200.333 453.667 191.583 453.333 186.333C452.917 181.083 452.167 175.333 451.583 173.667C450.667 170.75 450.75 170.083 452.75 166.167C453.917 163.75 455.917 156.917 457.167 151.083C459.167 141.583 459.333 140 458.333 137.333C456.75 132.667 454.333 129.75 451.167 128.417C449.583 127.75 448.333 126.833 448.333 126.417C448.333 125.917 447 124 445.417 122.25C443.25 119.917 442 117.333 440.917 113.25L439.5 107.583L435.25 107.667L431 107.833L430.667 97.5833C430.417 88.6666 430.167 86.9999 428.667 84.9166C423.167 77.5833 419.167 87.5833 419.167 108.917C419.167 114.75 418.917 120.583 418.667 122.083C418.167 124.667 418.083 124.667 415.833 123.25C412.333 121.25 410.583 122.333 411.083 126.167C411.333 127.833 411.167 132.917 410.667 137.333C409.583 148.083 410.667 154.333 415.083 164.083C417.5 169.333 419.417 175.167 420.917 182.5L423.25 193.333L421.5 217.083C420.583 230.25 419.5 241.167 419.25 241.5C418.917 241.917 414.25 240.917 408.833 239.333C403.5 237.75 398.333 236.667 397.5 236.917C395.083 237.583 374.167 226.417 372.583 223.667C371.167 221.167 370.417 220.833 369.583 222.167C368.667 223.667 363.917 223 360.167 220.833C356.833 218.917 355.917 218.75 351.25 219.25L346.083 219.75L342 214.333L338 208.833H328.083C322 208.833 316.333 209.333 313.417 210.083C309.167 211.167 308.083 211.167 303.667 210.083C301 209.333 296 207.5 292.583 205.917L286.5 203L286.833 191.083C287.083 184.583 287.75 178 288.333 176.583C289.25 174 289.5 173.833 292.417 174.333C297.5 175.167 298.583 173.083 299.25 161.5C299.583 156.167 300.25 150 300.75 147.833C301.333 145.417 301.5 138.75 301.25 130.333L300.917 116.75L297.917 111.083C296.333 107.917 295 104.333 295 103.167C295 97.0833 293.5 94.8333 280.25 81.3333C273.167 73.9999 266.833 67.9999 266.25 67.9999C265.583 67.9999 265 68.4999 264.75 68.9999ZM240.833 238V242.167H234.167H227.5V245.917V249.583L232.333 249.833L237.083 250.083L237.333 253.25C237.75 257.833 236.5 258.917 231.583 258.417L227.5 257.917V260.667C227.5 264.75 226.667 267 225.083 267.417C223.667 267.833 225.833 268 235 268.25L240.417 268.417L240.667 272.917L240.917 277.417L232.333 276.833C221.583 276.083 219.5 274.917 218 268.667C217.667 267.25 217.917 266 218.667 265.333C219.5 264.5 219.583 263.667 219 262.167C217.75 259 217.75 241.25 219 239.083C221 235.5 225.5 234.083 234.833 233.917L240.833 233.833V238ZM258.583 234.333C258.833 234.667 258.75 235.583 258.25 236.5C257.417 238 257.583 238 259.917 236.25C262.25 234.5 262.5 234.5 264.5 235.833C267.75 237.917 269.583 241.083 268.417 242.5C266.75 244.5 262.917 244.667 259.5 242.917L256.25 241.25L256 243.583C255.75 245.5 256.833 246.917 263.167 253C267.333 256.917 271.167 260.917 271.667 262C274.417 267.583 267.083 276.333 259.583 276.333C257.25 276.333 256.917 275.583 258.583 273.917C259.083 273.333 258.333 273.583 256.917 274.417C254.417 275.75 254 275.833 251.917 274.667C249.167 273.167 245.667 268.167 246 266.417C246.333 264.917 251.25 263.083 253.333 263.583C254.083 263.75 255 264.75 255.417 265.75C256 267.083 257.083 267.667 259.417 267.833C264.25 268.25 263.417 266.25 255.083 257.667C250.917 253.417 247.333 248.917 247 247.667C245.833 242.833 248.5 237.75 253.583 235.417C257.5 233.667 257.833 233.583 258.583 234.333ZM288.917 235.583C288.5 237.167 288.583 237.25 290.417 236C291.583 235.25 292.667 234.667 292.833 234.667C294.083 234.667 299.167 240.083 299.167 241.333C299.167 243.167 293.833 245.25 292.25 244C291.667 243.583 290 242.833 288.583 242.333C286 241.5 285.833 241.5 285.833 243.5C285.833 245 288.083 247.667 294.167 253.667C303.417 262.583 303.833 263.75 300.833 269.667C298.917 273.417 294.167 276.333 289.917 276.333H287.333L288.75 274.083L290.25 271.833L287.917 273.667C284.667 276.25 283.083 276 279.667 272.167C275.667 267.667 275.667 265 279.75 263.917C283.083 263 283.833 263.25 286.083 266.083C287.583 268 291.917 268.75 292.833 267.333C293.5 266.167 290.583 262.417 285.167 257.5C282.25 254.917 279.333 251.667 278.667 250.25C275.417 244 278.5 236.833 285.417 234.75C289.167 233.583 289.417 233.667 288.917 235.583ZM315 255.583V277.25L310.667 277L306.25 276.75L306 256.333C305.917 245.167 306 235.5 306.25 234.917C306.5 234.25 308.167 233.833 310.833 233.833H315V255.583ZM189.333 236.083C190.083 236.917 191.833 240 193.333 243C197.5 251.417 197.333 251.333 200.917 244.583C202.667 241.333 204.917 237.75 205.917 236.667C208.167 234.25 211.333 234.083 212.5 236.25C213 237.25 213.333 245.583 213.333 257.583V277.25L209 277L204.583 276.75V267.333C204.667 262.25 204.583 258 204.417 258C204.333 258 203.667 259.083 202.917 260.5C202.25 261.833 200.667 263.583 199.5 264.417C197.333 265.833 197.25 265.75 195.083 263.333C193.917 262 192.333 260 191.667 259C190.5 257.25 190.417 257.917 190.75 267.167L191 277.25L186.583 277L182.083 276.75V257.167C182.083 246.417 182.333 236.917 182.667 236.083C183.083 235.25 184.167 234.667 185.667 234.667C187 234.667 188.667 235.333 189.333 236.083ZM225.25 296.75L230 306.333V326.583C230 337.667 230.25 355.5 230.583 366.083L231.083 385.5H235.083C241.833 385.5 241.667 385.25 241.667 396.417V406.333H215.833H190V396.417C190 384.917 189.417 385.5 200.083 385.5H206.417L206.917 364.083C207.25 352.333 207.5 335.5 207.5 326.667C207.5 313.167 207.75 310.417 208.833 309.333C210 308.083 209.25 308 200.5 308C189.333 308 190.167 309.083 191.75 297.083C193.167 286.5 192.083 287.167 207.333 287.167H220.417L225.25 296.75ZM283.667 290.667C281.833 292.667 279.75 295.167 279.083 296.333C276.25 301 276.75 301.5 280.417 297.75C284.5 293.417 291.417 289.667 295.25 289.667C301 289.667 306.833 293.917 312.667 302.417L316 307.333L315.917 346.583C315.75 391.583 316.083 389.667 308.25 396.667C301.5 402.75 292.583 406.25 283.833 406.333H279.667L283 403.5C285.667 401.167 292.667 390.5 291.5 390.5C291.333 390.5 289.833 392.333 288.083 394.5C281.667 402.917 270.75 405.917 263.833 401.167C259.833 398.417 254.583 391.5 251.917 385.5L249.833 380.917L250.167 345.917C250.583 305.583 250.5 306.167 258.083 298C264.667 290.833 272.5 287.5 282.917 287.25L287 287.167L283.667 290.667Z" fill="black"/>
<path d="M278.333 310.75L275.417 311.75V345.75V379.833L277.917 381.833C280.833 384.167 285.5 384.5 289.167 382.583L291.667 381.25V347.667V314.083L289.667 312.25C287.25 310 282.333 309.333 278.333 310.75Z" fill="black"/>
<rect x="173" y="229" width="154" height="52" fill="black"/>
</g>
<defs>
<clipPath id="clip0_1_3">
<rect width="500" height="364.167" fill="white" transform="translate(0 68)"/>
</clipPath>
</defs>
</svg>
