<svg width="750" height="250" viewBox="0 0 750 250" fill="none" xmlns="http://www.w3.org/2000/svg">
<rect width="750" height="250" fill="white"/>
<mask id="path-1-outside-1_1_39" maskUnits="userSpaceOnUse" x="7.5" y="88" width="404" height="72" fill="black">
<rect fill="white" x="7.5" y="88" width="404" height="72"/>
<path d="M13.43 155V93.8H69.87V106.125H25.84V118.195H61.285V130.605H25.84V155H13.43ZM91.8558 155V106.04C91.8558 103.773 92.3941 101.733 93.4708 99.92C94.6041 98.05 96.0774 96.5767 97.8908 95.5C99.7608 94.3667 101.829 93.8 104.096 93.8H140.731C142.997 93.8 145.037 94.3667 146.851 95.5C148.721 96.5767 150.222 98.05 151.356 99.92C152.489 101.733 153.056 103.773 153.056 106.04V155H140.646V134.855H104.096V155H91.8558ZM104.096 122.615H140.646V106.635C140.646 106.465 140.589 106.352 140.476 106.295C140.419 106.182 140.306 106.125 140.136 106.125H104.606C104.436 106.125 104.294 106.182 104.181 106.295C104.124 106.352 104.096 106.465 104.096 106.635V122.615ZM179.825 155V93.715H192.065V142.675H241.025V155H179.825ZM284.401 155V106.125H259.921V93.8H321.121V106.125H296.726V155H284.401ZM344.648 155V106.04C344.648 103.773 345.186 101.733 346.263 99.92C347.396 98.05 348.869 96.5767 350.683 95.5C352.553 94.3667 354.621 93.8 356.888 93.8H393.523C395.789 93.8 397.829 94.3667 399.643 95.5C401.513 96.5767 403.014 98.05 404.148 99.92C405.281 101.733 405.848 103.773 405.848 106.04V155H393.438V134.855H356.888V155H344.648ZM356.888 122.615H393.438V106.635C393.438 106.465 393.381 106.352 393.268 106.295C393.211 106.182 393.098 106.125 392.928 106.125H357.398C357.228 106.125 357.086 106.182 356.973 106.295C356.916 106.352 356.888 106.465 356.888 106.635V122.615Z"/>
</mask>
<path d="M13.43 155V93.8H69.87V106.125H25.84V118.195H61.285V130.605H25.84V155H13.43ZM91.8558 155V106.04C91.8558 103.773 92.3941 101.733 93.4708 99.92C94.6041 98.05 96.0774 96.5767 97.8908 95.5C99.7608 94.3667 101.829 93.8 104.096 93.8H140.731C142.997 93.8 145.037 94.3667 146.851 95.5C148.721 96.5767 150.222 98.05 151.356 99.92C152.489 101.733 153.056 103.773 153.056 106.04V155H140.646V134.855H104.096V155H91.8558ZM104.096 122.615H140.646V106.635C140.646 106.465 140.589 106.352 140.476 106.295C140.419 106.182 140.306 106.125 140.136 106.125H104.606C104.436 106.125 104.294 106.182 104.181 106.295C104.124 106.352 104.096 106.465 104.096 106.635V122.615ZM179.825 155V93.715H192.065V142.675H241.025V155H179.825ZM284.401 155V106.125H259.921V93.8H321.121V106.125H296.726V155H284.401ZM344.648 155V106.04C344.648 103.773 345.186 101.733 346.263 99.92C347.396 98.05 348.869 96.5767 350.683 95.5C352.553 94.3667 354.621 93.8 356.888 93.8H393.523C395.789 93.8 397.829 94.3667 399.643 95.5C401.513 96.5767 403.014 98.05 404.148 99.92C405.281 101.733 405.848 103.773 405.848 106.04V155H393.438V134.855H356.888V155H344.648ZM356.888 122.615H393.438V106.635C393.438 106.465 393.381 106.352 393.268 106.295C393.211 106.182 393.098 106.125 392.928 106.125H357.398C357.228 106.125 357.086 106.182 356.973 106.295C356.916 106.352 356.888 106.465 356.888 106.635V122.615Z" fill="#222222"/>
<path d="M13.43 155H8.43C8.43 157.761 10.6686 160 13.43 160V155ZM13.43 93.8V88.8C10.6686 88.8 8.43 91.0386 8.43 93.8H13.43ZM69.87 93.8H74.87C74.87 91.0386 72.6314 88.8 69.87 88.8V93.8ZM69.87 106.125V111.125C72.6314 111.125 74.87 108.886 74.87 106.125H69.87ZM25.84 106.125V101.125C23.0786 101.125 20.84 103.364 20.84 106.125H25.84ZM25.84 118.195H20.84C20.84 120.956 23.0786 123.195 25.84 123.195V118.195ZM61.285 118.195H66.285C66.285 115.434 64.0464 113.195 61.285 113.195V118.195ZM61.285 130.605V135.605C64.0464 135.605 66.285 133.366 66.285 130.605H61.285ZM25.84 130.605V125.605C23.0786 125.605 20.84 127.844 20.84 130.605H25.84ZM25.84 155V160C28.6014 160 30.84 157.761 30.84 155H25.84ZM18.43 155V93.8H8.43V155H18.43ZM13.43 98.8H69.87V88.8H13.43V98.8ZM64.87 93.8V106.125H74.87V93.8H64.87ZM69.87 101.125H25.84V111.125H69.87V101.125ZM20.84 106.125V118.195H30.84V106.125H20.84ZM25.84 123.195H61.285V113.195H25.84V123.195ZM56.285 118.195V130.605H66.285V118.195H56.285ZM61.285 125.605H25.84V135.605H61.285V125.605ZM20.84 130.605V155H30.84V130.605H20.84ZM25.84 150H13.43V160H25.84V150ZM91.8558 155H86.8558C86.8558 157.761 89.0944 160 91.8558 160V155ZM93.4708 99.92L89.1948 97.3285C89.187 97.3414 89.1792 97.3543 89.1715 97.3673L93.4708 99.92ZM97.8908 95.5L100.443 99.7993C100.456 99.7916 100.469 99.7838 100.482 99.776L97.8908 95.5ZM146.851 95.5L144.201 99.74C144.252 99.772 144.304 99.803 144.356 99.8331L146.851 95.5ZM151.356 99.92L147.08 102.512C147.092 102.531 147.104 102.551 147.116 102.57L151.356 99.92ZM153.056 155V160C155.817 160 158.056 157.761 158.056 155H153.056ZM140.646 155H135.646C135.646 157.761 137.884 160 140.646 160V155ZM140.646 134.855H145.646C145.646 132.094 143.407 129.855 140.646 129.855V134.855ZM104.096 134.855V129.855C101.334 129.855 99.0958 132.094 99.0958 134.855H104.096ZM104.096 155V160C106.857 160 109.096 157.761 109.096 155H104.096ZM104.096 122.615H99.0958C99.0958 125.376 101.334 127.615 104.096 127.615V122.615ZM140.646 122.615V127.615C143.407 127.615 145.646 125.376 145.646 122.615H140.646ZM140.476 106.295L136.004 108.531C136.487 109.499 137.272 110.283 138.24 110.767L140.476 106.295ZM104.181 106.295L107.716 109.831L107.716 109.831L104.181 106.295ZM96.8558 155V106.04H86.8558V155H96.8558ZM96.8558 106.04C96.8558 104.602 97.1864 103.456 97.7701 102.473L89.1715 97.3673C87.6019 100.011 86.8558 102.945 86.8558 106.04H96.8558ZM97.7468 102.512C98.4709 101.317 99.3626 100.441 100.443 99.7993L95.3381 91.2007C92.7923 92.7123 90.7374 94.7832 89.1948 97.3285L97.7468 102.512ZM100.482 99.776C101.541 99.1341 102.708 98.8 104.096 98.8V88.8C100.95 88.8 97.9802 89.5992 95.2993 91.224L100.482 99.776ZM104.096 98.8H140.731V88.8H104.096V98.8ZM140.731 98.8C142.119 98.8 143.231 99.1336 144.201 99.74L149.501 91.26C146.844 89.5998 143.876 88.8 140.731 88.8V98.8ZM144.356 99.8331C145.485 100.483 146.378 101.353 147.08 102.512L155.632 97.3285C154.067 94.7471 151.957 92.6704 149.346 91.1669L144.356 99.8331ZM147.116 102.57C147.722 103.54 148.056 104.652 148.056 106.04H158.056C158.056 102.895 157.256 99.9264 155.596 97.27L147.116 102.57ZM148.056 106.04V155H158.056V106.04H148.056ZM153.056 150H140.646V160H153.056V150ZM145.646 155V134.855H135.646V155H145.646ZM140.646 129.855H104.096V139.855H140.646V129.855ZM99.0958 134.855V155H109.096V134.855H99.0958ZM104.096 150H91.8558V160H104.096V150ZM104.096 127.615H140.646V117.615H104.096V127.615ZM145.646 122.615V106.635H135.646V122.615H145.646ZM145.646 106.635C145.646 105.326 145.103 103.018 142.712 101.823L138.24 110.767C137.329 110.312 136.587 109.57 136.131 108.659C135.715 107.825 135.646 107.073 135.646 106.635H145.646ZM144.948 104.059C143.752 101.668 141.445 101.125 140.136 101.125V111.125C139.698 111.125 138.945 111.056 138.112 110.64C137.201 110.184 136.459 109.442 136.004 108.531L144.948 104.059ZM140.136 101.125H104.606V111.125H140.136V101.125ZM104.606 101.125C103.199 101.125 101.758 101.647 100.645 102.759L107.716 109.831C107.319 110.228 106.818 110.574 106.229 110.81C105.645 111.043 105.084 111.125 104.606 111.125V101.125ZM100.645 102.759C99.7476 103.657 99.4058 104.652 99.2663 105.21C99.1193 105.798 99.0958 106.309 99.0958 106.635H109.096C109.096 106.791 109.086 107.16 108.968 107.635C108.857 108.08 108.557 108.99 107.716 109.831L100.645 102.759ZM99.0958 106.635V122.615H109.096V106.635H99.0958ZM179.825 155H174.825C174.825 157.761 177.064 160 179.825 160V155ZM179.825 93.715V88.715C177.064 88.715 174.825 90.9536 174.825 93.715H179.825ZM192.065 93.715H197.065C197.065 90.9536 194.827 88.715 192.065 88.715V93.715ZM192.065 142.675H187.065C187.065 145.436 189.304 147.675 192.065 147.675V142.675ZM241.025 142.675H246.025C246.025 139.914 243.787 137.675 241.025 137.675V142.675ZM241.025 155V160C243.787 160 246.025 157.761 246.025 155H241.025ZM184.825 155V93.715H174.825V155H184.825ZM179.825 98.715H192.065V88.715H179.825V98.715ZM187.065 93.715V142.675H197.065V93.715H187.065ZM192.065 147.675H241.025V137.675H192.065V147.675ZM236.025 142.675V155H246.025V142.675H236.025ZM241.025 150H179.825V160H241.025V150ZM284.401 155H279.401C279.401 157.761 281.639 160 284.401 160V155ZM284.401 106.125H289.401C289.401 103.364 287.162 101.125 284.401 101.125V106.125ZM259.921 106.125H254.921C254.921 108.886 257.159 111.125 259.921 111.125V106.125ZM259.921 93.8V88.8C257.159 88.8 254.921 91.0386 254.921 93.8H259.921ZM321.121 93.8H326.121C326.121 91.0386 323.882 88.8 321.121 88.8V93.8ZM321.121 106.125V111.125C323.882 111.125 326.121 108.886 326.121 106.125H321.121ZM296.726 106.125V101.125C293.964 101.125 291.726 103.364 291.726 106.125H296.726ZM296.726 155V160C299.487 160 301.726 157.761 301.726 155H296.726ZM289.401 155V106.125H279.401V155H289.401ZM284.401 101.125H259.921V111.125H284.401V101.125ZM264.921 106.125V93.8H254.921V106.125H264.921ZM259.921 98.8H321.121V88.8H259.921V98.8ZM316.121 93.8V106.125H326.121V93.8H316.121ZM321.121 101.125H296.726V111.125H321.121V101.125ZM291.726 106.125V155H301.726V106.125H291.726ZM296.726 150H284.401V160H296.726V150ZM344.648 155H339.648C339.648 157.761 341.886 160 344.648 160V155ZM346.263 99.92L341.987 97.3285C341.979 97.3414 341.971 97.3543 341.964 97.3673L346.263 99.92ZM350.683 95.5L353.235 99.7993C353.248 99.7916 353.261 99.7838 353.274 99.776L350.683 95.5ZM399.643 95.5L396.993 99.74C397.044 99.772 397.096 99.803 397.148 99.8331L399.643 95.5ZM404.148 99.92L399.872 102.512C399.884 102.531 399.896 102.551 399.908 102.57L404.148 99.92ZM405.848 155V160C408.609 160 410.848 157.761 410.848 155H405.848ZM393.438 155H388.438C388.438 157.761 390.676 160 393.438 160V155ZM393.438 134.855H398.438C398.438 132.094 396.199 129.855 393.438 129.855V134.855ZM356.888 134.855V129.855C354.126 129.855 351.888 132.094 351.888 134.855H356.888ZM356.888 155V160C359.649 160 361.888 157.761 361.888 155H356.888ZM356.888 122.615H351.888C351.888 125.376 354.126 127.615 356.888 127.615V122.615ZM393.438 122.615V127.615C396.199 127.615 398.438 125.376 398.438 122.615H393.438ZM393.268 106.295L388.796 108.531C389.279 109.499 390.064 110.283 391.032 110.767L393.268 106.295ZM356.973 106.295L360.508 109.831L360.508 109.831L356.973 106.295ZM349.648 155V106.04H339.648V155H349.648ZM349.648 106.04C349.648 104.602 349.978 103.456 350.562 102.473L341.964 97.3673C340.394 100.011 339.648 102.945 339.648 106.04H349.648ZM350.539 102.512C351.263 101.317 352.155 100.441 353.235 99.7993L348.13 91.2007C345.584 92.7123 343.529 94.7832 341.987 97.3285L350.539 102.512ZM353.274 99.776C354.333 99.1341 355.5 98.8 356.888 98.8V88.8C353.742 88.8 350.772 89.5992 348.091 91.224L353.274 99.776ZM356.888 98.8H393.523V88.8H356.888V98.8ZM393.523 98.8C394.911 98.8 396.023 99.1336 396.993 99.74L402.293 91.26C399.636 89.5998 396.668 88.8 393.523 88.8V98.8ZM397.148 99.8331C398.277 100.483 399.17 101.353 399.872 102.512L408.424 97.3285C406.859 94.7471 404.749 92.6704 402.138 91.1669L397.148 99.8331ZM399.908 102.57C400.514 103.54 400.848 104.652 400.848 106.04H410.848C410.848 102.895 410.048 99.9264 408.388 97.27L399.908 102.57ZM400.848 106.04V155H410.848V106.04H400.848ZM405.848 150H393.438V160H405.848V150ZM398.438 155V134.855H388.438V155H398.438ZM393.438 129.855H356.888V139.855H393.438V129.855ZM351.888 134.855V155H361.888V134.855H351.888ZM356.888 150H344.648V160H356.888V150ZM356.888 127.615H393.438V117.615H356.888V127.615ZM398.438 122.615V106.635H388.438V122.615H398.438ZM398.438 106.635C398.438 105.326 397.895 103.018 395.504 101.823L391.032 110.767C390.121 110.312 389.379 109.57 388.923 108.659C388.507 107.825 388.438 107.073 388.438 106.635H398.438ZM397.74 104.059C396.544 101.668 394.237 101.125 392.928 101.125V111.125C392.49 111.125 391.737 111.056 390.904 110.64C389.993 110.184 389.251 109.442 388.796 108.531L397.74 104.059ZM392.928 101.125H357.398V111.125H392.928V101.125ZM357.398 101.125C355.991 101.125 354.55 101.647 353.437 102.759L360.508 109.831C360.111 110.228 359.61 110.574 359.021 110.81C358.437 111.043 357.876 111.125 357.398 111.125V101.125ZM353.437 102.759C352.54 103.657 352.198 104.652 352.058 105.21C351.911 105.798 351.888 106.309 351.888 106.635H361.888C361.888 106.791 361.878 107.16 361.76 107.635C361.649 108.08 361.349 108.99 360.508 109.831L353.437 102.759ZM351.888 106.635V122.615H361.888V106.635H351.888Z" fill="#FC4B08" mask="url(#path-1-outside-1_1_39)"/>
<g clip-path="url(#clip0_1_39)">
<path d="M581 44H431V194H581V44Z" fill="white"/>
<mask id="mask0_1_39" style="mask-type:luminance" maskUnits="userSpaceOnUse" x="431" y="64" width="150" height="110">
<path d="M581 64.4H431V173.65H581V64.4Z" fill="white"/>
</mask>
<g mask="url(#mask0_1_39)">
<path d="M510.425 64.7C510.375 64.875 510.475 65.35 510.675 65.75C511.15 66.675 510.9 67.775 510.3 67.475C510.075 67.375 509.1 67.275 508.125 67.3C506.375 67.3 506.35 67.325 501.95 69.8C497.875 72.1 497.45 72.4 496.6 73.65C496.1 74.3999 495.15 75.7001 494.525 76.5251C493.525 77.8751 493.4 78.1499 493.45 79.2251C493.475 79.8749 493.6 80.9 493.75 81.4751C493.875 82.0499 494 84.875 494 87.7499C494 92.6999 494.2 94.4999 494.825 95.3249C494.95 95.5001 495.55 95.6501 496.15 95.6501H497.25V99.875C497.25 104.475 497.275 104.4 495.8 104.4C495.425 104.4 493.725 104.75 492 105.175L488.875 105.95L485.825 104.775L482.75 103.575L481.45 103.95C480.3 104.275 480.075 104.45 479.65 105.3C479.025 106.65 478.525 107.15 477.85 107.15C477.275 107.15 474.25 108.25 466.15 111.4C463.55 112.425 462 112.9 461.625 112.8C461.3 112.725 460.725 112.775 460.325 112.925C459.95 113.1 458.85 113.3 457.875 113.425C456.925 113.55 455.675 113.7 455.125 113.775L454.125 113.925L452.9 110.75C449.05 100.75 448.6 97.775 450.025 92.1251C450.475 90.425 450.825 88.4 450.85 87.65C450.85 86.2001 450.225 83.9999 449.425 82.85C448.95 82.1249 448.275 77.8499 448.25 75.4001C448.25 73.55 447.625 69.575 447.2 68.75C446.7 67.7 446.125 67.45 445.3 67.9L444.625 68.3V72.1V75.8999H443.975C442.95 75.8999 442.275 76.625 441.875 78.125C441.675 78.875 441.25 79.775 440.925 80.1251C440.6 80.4749 440.075 81.2249 439.75 81.7499C439.425 82.2749 438.675 83.225 438.05 83.825C436.95 84.9251 436.95 84.9749 437.075 86.2499C437.225 87.725 438.575 92.075 439.325 93.5249C440.1 95 440.25 96.8999 440.325 106.4C440.375 115.6 440.65 118.35 442.05 123.6C442.55 125.55 442.65 125.75 443.6 126.35C444.175 126.7 445.475 127.35 446.525 127.8C448.275 128.575 448.65 128.65 452.375 128.825L456.35 129.025L457.35 131.8C457.925 133.325 458.55 134.85 458.75 135.15L459.15 135.725L461.75 135.175C463.2 134.85 465.175 134.25 466.125 133.85C467.1 133.425 468.7 132.95 469.725 132.8C471.4 132.575 471.625 132.575 472.475 133.075C473.9 133.9 474.75 135.35 475.125 137.725C475.9 142.45 476.6 149.225 476.625 152.15C476.675 157.125 477.25 167.475 477.525 168.125L477.775 168.725L486.575 168.575C491.425 168.475 503.775 168.4 514.075 168.4H532.75V163.95C532.75 159.375 532.925 157.775 534.475 148.025C534.875 145.55 535.35 142.225 535.525 140.65C535.825 137.85 535.85 137.75 536.875 136.4C537.55 135.55 538.425 134.75 539.225 134.325L540.5 133.625L542.8 134.025C544.075 134.225 546.575 134.825 548.35 135.3C552.2 136.375 552.35 136.35 553.75 133.85L554.65 132.275L558.25 132.15L561.875 132.025L564.75 130.625C566.325 129.85 567.85 128.975 568.1 128.675C568.7 128 568.95 125.375 568.975 119.525C569 115.125 568.6 110.775 567.725 105.7C567.425 104.1 567.1 101.475 567 99.8999C566.875 98.3249 566.65 96.5999 566.475 96.1001C566.2 95.225 566.225 95.0249 566.825 93.8501C567.175 93.125 567.775 91.0751 568.15 89.3249C568.75 86.4749 568.8 86 568.5 85.1999C568.025 83.8001 567.3 82.925 566.35 82.5251C565.875 82.325 565.5 82.0499 565.5 81.9251C565.5 81.7751 565.1 81.2 564.625 80.675C563.975 79.9751 563.6 79.1999 563.275 77.975L562.85 76.2749L561.575 76.3001L560.3 76.3499L560.2 73.275C560.125 70.6 560.05 70.1 559.6 69.475C557.95 67.275 556.75 70.275 556.75 76.6751C556.75 78.425 556.675 80.1749 556.6 80.6249C556.45 81.4001 556.425 81.4001 555.75 80.975C554.7 80.375 554.175 80.6999 554.325 81.8501C554.4 82.3499 554.35 83.8751 554.2 85.1999C553.875 88.4249 554.2 90.2999 555.525 93.2249C556.25 94.7999 556.825 96.5501 557.275 98.75L557.975 102L557.45 109.125C557.175 113.075 556.85 116.35 556.775 116.45C556.675 116.575 555.275 116.275 553.65 115.8C552.05 115.325 550.5 115 550.25 115.075C549.525 115.275 543.25 111.925 542.775 111.1C542.35 110.35 542.125 110.25 541.875 110.65C541.6 111.1 540.175 110.9 539.05 110.25C538.05 109.675 537.775 109.625 536.375 109.775L534.825 109.925L533.6 108.3L532.4 106.65H529.425C527.6 106.65 525.9 106.8 525.025 107.025C523.75 107.35 523.425 107.35 522.1 107.025C521.3 106.8 519.8 106.25 518.775 105.775L516.95 104.9L517.05 101.325C517.125 99.3749 517.325 97.4 517.5 96.9749C517.775 96.2 517.85 96.1499 518.725 96.2999C520.25 96.5501 520.575 95.9249 520.775 92.45C520.875 90.8501 521.075 89 521.225 88.3499C521.4 87.6251 521.45 85.625 521.375 83.0999L521.275 79.025L520.375 77.3249C519.9 76.3751 519.5 75.2999 519.5 74.9501C519.5 73.125 519.05 72.45 515.075 68.4C512.95 66.2 511.05 64.4 510.875 64.4C510.675 64.4 510.5 64.55 510.425 64.7ZM503.25 115.4V116.65H501.25H499.25V117.775V118.875L500.7 118.95L502.125 119.025L502.2 119.975C502.325 121.35 501.95 121.675 500.475 121.525L499.25 121.375V122.2C499.25 123.425 499 124.1 498.525 124.225C498.1 124.35 498.75 124.4 501.5 124.475L503.125 124.525L503.2 125.875L503.275 127.225L500.7 127.05C497.475 126.825 496.85 126.475 496.4 124.6C496.3 124.175 496.375 123.8 496.6 123.6C496.85 123.35 496.875 123.1 496.7 122.65C496.325 121.7 496.325 116.375 496.7 115.725C497.3 114.65 498.65 114.225 501.45 114.175L503.25 114.15V115.4ZM508.575 114.3C508.65 114.4 508.625 114.675 508.475 114.95C508.225 115.4 508.275 115.4 508.975 114.875C509.675 114.35 509.75 114.35 510.35 114.75C511.325 115.375 511.875 116.325 511.525 116.75C511.025 117.35 509.875 117.4 508.85 116.875L507.875 116.375L507.8 117.075C507.725 117.65 508.05 118.075 509.95 119.9C511.2 121.075 512.35 122.275 512.5 122.6C513.325 124.275 511.125 126.9 508.875 126.9C508.175 126.9 508.075 126.675 508.575 126.175C508.725 126 508.5 126.075 508.075 126.325C507.325 126.725 507.2 126.75 506.575 126.4C505.75 125.95 504.7 124.45 504.8 123.925C504.9 123.475 506.375 122.925 507 123.075C507.225 123.125 507.5 123.425 507.625 123.725C507.8 124.125 508.125 124.3 508.825 124.35C510.275 124.475 510.025 123.875 507.525 121.3C506.275 120.025 505.2 118.675 505.1 118.3C504.75 116.85 505.55 115.325 507.075 114.625C508.25 114.1 508.35 114.075 508.575 114.3ZM517.675 114.675C517.55 115.15 517.575 115.175 518.125 114.8C518.475 114.575 518.8 114.4 518.85 114.4C519.225 114.4 520.75 116.025 520.75 116.4C520.75 116.95 519.15 117.575 518.675 117.2C518.5 117.075 518 116.85 517.575 116.7C516.8 116.45 516.75 116.45 516.75 117.05C516.75 117.5 517.425 118.3 519.25 120.1C522.025 122.775 522.15 123.125 521.25 124.9C520.675 126.025 519.25 126.9 517.975 126.9H517.2L517.625 126.225L518.075 125.55L517.375 126.1C516.4 126.875 515.925 126.8 514.9 125.65C513.7 124.3 513.7 123.5 514.925 123.175C515.925 122.9 516.15 122.975 516.825 123.825C517.275 124.4 518.575 124.625 518.85 124.2C519.05 123.85 518.175 122.725 516.55 121.25C515.675 120.475 514.8 119.5 514.6 119.075C513.625 117.2 514.55 115.05 516.625 114.425C517.75 114.075 517.825 114.1 517.675 114.675ZM525.5 120.675V127.175L524.2 127.1L522.875 127.025L522.8 120.9C522.775 117.55 522.8 114.65 522.875 114.475C522.95 114.275 523.45 114.15 524.25 114.15H525.5V120.675ZM487.8 114.825C488.025 115.075 488.55 116 489 116.9C490.25 119.425 490.2 119.4 491.275 117.375C491.8 116.4 492.475 115.325 492.775 115C493.45 114.275 494.4 114.225 494.75 114.875C494.9 115.175 495 117.675 495 121.275V127.175L493.7 127.1L492.375 127.025V124.2C492.4 122.675 492.375 121.4 492.325 121.4C492.3 121.4 492.1 121.725 491.875 122.15C491.675 122.55 491.2 123.075 490.85 123.325C490.2 123.75 490.175 123.725 489.525 123C489.175 122.6 488.7 122 488.5 121.7C488.15 121.175 488.125 121.375 488.225 124.15L488.3 127.175L486.975 127.1L485.625 127.025V121.15C485.625 117.925 485.7 115.075 485.8 114.825C485.925 114.575 486.25 114.4 486.7 114.4C487.1 114.4 487.6 114.6 487.8 114.825ZM498.575 133.025L500 135.9V141.975C500 145.3 500.075 150.65 500.175 153.825L500.325 159.65H501.525C503.55 159.65 503.5 159.575 503.5 162.925V165.9H495.75H488V162.925C488 159.475 487.825 159.65 491.025 159.65H492.925L493.075 153.225C493.175 149.7 493.25 144.65 493.25 142C493.25 137.95 493.325 137.125 493.65 136.8C494 136.425 493.775 136.4 491.15 136.4C487.8 136.4 488.05 136.725 488.525 133.125C488.95 129.95 488.625 130.15 493.2 130.15H497.125L498.575 133.025ZM516.1 131.2C515.55 131.8 514.925 132.55 514.725 132.9C513.875 134.3 514.025 134.45 515.125 133.325C516.35 132.025 518.425 130.9 519.575 130.9C521.3 130.9 523.05 132.175 524.8 134.725L525.8 136.2L525.775 147.975C525.725 161.475 525.825 160.9 523.475 163C521.45 164.825 518.775 165.875 516.15 165.9H514.9L515.9 165.05C516.7 164.35 518.8 161.15 518.45 161.15C518.4 161.15 517.95 161.7 517.425 162.35C515.5 164.875 512.225 165.775 510.15 164.35C508.95 163.525 507.375 161.45 506.575 159.65L505.95 158.275L506.05 147.775C506.175 135.675 506.15 135.85 508.425 133.4C510.4 131.25 512.75 130.25 515.875 130.175L517.1 130.15L516.1 131.2Z" fill="black"/>
<path d="M514.5 137.225L513.625 137.525V147.725V157.95L514.375 158.55C515.25 159.25 516.65 159.35 517.75 158.775L518.5 158.375V148.3V138.225L517.9 137.675C517.175 137 515.7 136.8 514.5 137.225Z" fill="black"/>
<path d="M529.1 112.7H482.9V128.3H529.1V112.7Z" fill="black"/>
</g>
</g>
<mask id="path-9-outside-2_1_39" maskUnits="userSpaceOnUse" x="575" y="85" width="160" height="72" fill="black">
<rect fill="white" x="575" y="85" width="160" height="72"/>
<path d="M580.76 152V90.8H593.765L629.55 133.47V90.8H641.96V152H628.955L593 109.16V152H580.76ZM680.553 152C678.286 152 676.218 151.462 674.348 150.385C672.534 149.252 671.061 147.778 669.928 145.965C668.851 144.095 668.313 142.027 668.313 139.76V103.04C668.313 100.773 668.851 98.7333 669.928 96.92C671.061 95.05 672.534 93.5767 674.348 92.5C676.218 91.3667 678.286 90.8 680.553 90.8H717.273C719.483 90.8 721.494 91.3667 723.308 92.5C725.178 93.5767 726.679 95.05 727.813 96.92C728.946 98.7333 729.513 100.773 729.513 103.04V139.76C729.513 142.027 728.946 144.095 727.813 145.965C726.679 147.778 725.178 149.252 723.308 150.385C721.494 151.462 719.483 152 717.273 152H680.553ZM681.063 139.675H716.593C716.763 139.675 716.876 139.647 716.933 139.59C717.046 139.477 717.103 139.335 717.103 139.165V103.635C717.103 103.465 717.046 103.352 716.933 103.295C716.876 103.182 716.763 103.125 716.593 103.125H681.063C680.893 103.125 680.751 103.182 680.638 103.295C680.581 103.352 680.553 103.465 680.553 103.635V139.165C680.553 139.335 680.581 139.477 680.638 139.59C680.751 139.647 680.893 139.675 681.063 139.675Z"/>
</mask>
<path d="M580.76 152V90.8H593.765L629.55 133.47V90.8H641.96V152H628.955L593 109.16V152H580.76ZM680.553 152C678.286 152 676.218 151.462 674.348 150.385C672.534 149.252 671.061 147.778 669.928 145.965C668.851 144.095 668.313 142.027 668.313 139.76V103.04C668.313 100.773 668.851 98.7333 669.928 96.92C671.061 95.05 672.534 93.5767 674.348 92.5C676.218 91.3667 678.286 90.8 680.553 90.8H717.273C719.483 90.8 721.494 91.3667 723.308 92.5C725.178 93.5767 726.679 95.05 727.813 96.92C728.946 98.7333 729.513 100.773 729.513 103.04V139.76C729.513 142.027 728.946 144.095 727.813 145.965C726.679 147.778 725.178 149.252 723.308 150.385C721.494 151.462 719.483 152 717.273 152H680.553ZM681.063 139.675H716.593C716.763 139.675 716.876 139.647 716.933 139.59C717.046 139.477 717.103 139.335 717.103 139.165V103.635C717.103 103.465 717.046 103.352 716.933 103.295C716.876 103.182 716.763 103.125 716.593 103.125H681.063C680.893 103.125 680.751 103.182 680.638 103.295C680.581 103.352 680.553 103.465 680.553 103.635V139.165C680.553 139.335 680.581 139.477 680.638 139.59C680.751 139.647 680.893 139.675 681.063 139.675Z" fill="#222222"/>
<path d="M580.76 152H575.76C575.76 154.761 577.999 157 580.76 157V152ZM580.76 90.8V85.8C577.999 85.8 575.76 88.0386 575.76 90.8H580.76ZM593.765 90.8L597.596 87.5871C596.646 86.4543 595.243 85.8 593.765 85.8V90.8ZM629.55 133.47L625.719 136.683C627.07 138.294 629.284 138.887 631.259 138.169C633.235 137.45 634.55 135.572 634.55 133.47H629.55ZM629.55 90.8V85.8C626.789 85.8 624.55 88.0386 624.55 90.8H629.55ZM641.96 90.8H646.96C646.96 88.0386 644.721 85.8 641.96 85.8V90.8ZM641.96 152V157C644.721 157 646.96 154.761 646.96 152H641.96ZM628.955 152L625.125 155.214C626.075 156.346 627.477 157 628.955 157V152ZM593 109.16L596.83 105.946C595.479 104.336 593.265 103.743 591.29 104.462C589.315 105.181 588 107.058 588 109.16H593ZM593 152V157C595.761 157 598 154.761 598 152H593ZM585.76 152V90.8H575.76V152H585.76ZM580.76 95.8H593.765V85.8H580.76V95.8ZM589.934 94.0129L625.719 136.683L633.381 130.257L597.596 87.5871L589.934 94.0129ZM634.55 133.47V90.8H624.55V133.47H634.55ZM629.55 95.8H641.96V85.8H629.55V95.8ZM636.96 90.8V152H646.96V90.8H636.96ZM641.96 147H628.955V157H641.96V147ZM632.785 148.786L596.83 105.946L589.17 112.374L625.125 155.214L632.785 148.786ZM588 109.16V152H598V109.16H588ZM593 147H580.76V157H593V147ZM674.348 150.385L671.698 154.625C671.749 154.657 671.801 154.688 671.853 154.718L674.348 150.385ZM669.928 145.965L665.595 148.46C665.625 148.512 665.656 148.564 665.688 148.615L669.928 145.965ZM669.928 96.92L665.652 94.3285C665.644 94.3414 665.636 94.3543 665.628 94.3673L669.928 96.92ZM674.348 92.5L676.9 96.7993C676.913 96.7916 676.926 96.7838 676.939 96.776L674.348 92.5ZM723.308 92.5L720.658 96.74C720.709 96.772 720.761 96.803 720.813 96.8331L723.308 92.5ZM727.813 96.92L723.537 99.5115C723.549 99.5311 723.561 99.5506 723.573 99.57L727.813 96.92ZM727.813 145.965L732.053 148.615C732.065 148.596 732.077 148.576 732.089 148.557L727.813 145.965ZM723.308 150.385L725.86 154.684C725.873 154.677 725.886 154.669 725.899 154.661L723.308 150.385ZM716.933 139.59L720.468 143.126L720.468 143.126L716.933 139.59ZM716.933 103.295L712.461 105.531C712.944 106.499 713.729 107.283 714.697 107.767L716.933 103.295ZM680.638 103.295L684.173 106.831L684.173 106.83L680.638 103.295ZM680.638 139.59L676.166 141.826C676.649 142.794 677.434 143.578 678.402 144.062L680.638 139.59ZM680.553 147C679.116 147 677.915 146.669 676.842 146.052L671.853 154.718C674.521 156.254 677.456 157 680.553 157V147ZM676.998 146.145C675.828 145.414 674.899 144.484 674.168 143.315L665.688 148.615C667.223 151.072 669.24 153.089 671.698 154.625L676.998 146.145ZM674.261 143.47C673.643 142.398 673.313 141.197 673.313 139.76H663.313C663.313 142.856 664.059 145.792 665.595 148.46L674.261 143.47ZM673.313 139.76V103.04H663.313V139.76H673.313ZM673.313 103.04C673.313 101.602 673.643 100.456 674.227 99.4727L665.628 94.3673C664.059 97.0109 663.313 99.9446 663.313 103.04H673.313ZM674.204 99.5115C674.928 98.3168 675.819 97.4411 676.9 96.7993L671.795 88.2007C669.249 89.7123 667.194 91.7832 665.652 94.3285L674.204 99.5115ZM676.939 96.776C677.998 96.1341 679.165 95.8 680.553 95.8V85.8C677.407 85.8 674.437 86.5992 671.756 88.224L676.939 96.776ZM680.553 95.8H717.273V85.8H680.553V95.8ZM717.273 95.8C718.579 95.8 719.667 96.1205 720.658 96.74L725.958 88.26C723.322 86.6128 720.387 85.8 717.273 85.8V95.8ZM720.813 96.8331C721.942 97.483 722.835 98.3529 723.537 99.5115L732.089 94.3285C730.524 91.7471 728.414 89.6704 725.802 88.1669L720.813 96.8331ZM723.573 99.57C724.179 100.54 724.513 101.652 724.513 103.04H734.513C734.513 99.895 733.713 96.9264 732.053 94.27L723.573 99.57ZM724.513 103.04V139.76H734.513V103.04H724.513ZM724.513 139.76C724.513 141.148 724.179 142.314 723.537 143.373L732.089 148.557C733.713 145.876 734.513 142.905 734.513 139.76H724.513ZM723.573 143.315C722.864 144.449 721.933 145.372 720.716 146.109L725.899 154.661C728.423 153.132 730.495 151.107 732.053 148.615L723.573 143.315ZM720.755 146.086C719.752 146.681 718.629 147 717.273 147V157C720.336 157 723.237 156.242 725.86 154.684L720.755 146.086ZM717.273 147H680.553V157H717.273V147ZM681.063 144.675H716.593V134.675H681.063V144.675ZM716.593 144.675C716.919 144.675 717.43 144.652 718.018 144.504C718.576 144.365 719.57 144.023 720.468 143.126L713.397 136.054C714.238 135.213 715.148 134.914 715.592 134.803C716.067 134.684 716.436 134.675 716.593 134.675V144.675ZM720.468 143.126C721.581 142.013 722.103 140.572 722.103 139.165H712.103C712.103 138.686 712.184 138.125 712.418 137.542C712.654 136.952 713 136.452 713.397 136.054L720.468 143.126ZM722.103 139.165V103.635H712.103V139.165H722.103ZM722.103 103.635C722.103 102.326 721.56 100.018 719.169 98.8229L714.697 107.767C713.786 107.312 713.043 106.57 712.588 105.659C712.171 104.825 712.103 104.073 712.103 103.635H722.103ZM721.405 101.059C720.209 98.668 717.902 98.125 716.593 98.125V108.125C716.154 108.125 715.402 108.056 714.569 107.64C713.658 107.184 712.916 106.442 712.461 105.531L721.405 101.059ZM716.593 98.125H681.063V108.125H716.593V98.125ZM681.063 98.125C679.656 98.125 678.214 98.6472 677.102 99.7595L684.173 106.83C683.776 107.228 683.275 107.574 682.686 107.81C682.102 108.043 681.541 108.125 681.063 108.125V98.125ZM677.102 99.7594C676.204 100.657 675.863 101.652 675.723 102.21C675.576 102.798 675.553 103.309 675.553 103.635H685.553C685.553 103.791 685.543 104.16 685.425 104.635C685.313 105.08 685.014 105.99 684.173 106.831L677.102 99.7594ZM675.553 103.635V139.165H685.553V103.635H675.553ZM675.553 139.165C675.553 139.858 675.664 140.823 676.166 141.826L685.11 137.354C685.498 138.13 685.553 138.812 685.553 139.165H675.553ZM678.402 144.062C679.405 144.564 680.369 144.675 681.063 144.675V134.675C681.416 134.675 682.097 134.73 682.874 135.118L678.402 144.062Z" fill="#FC4B08" mask="url(#path-9-outside-2_1_39)"/>
<defs>
<clipPath id="clip0_1_39">
<rect width="150" height="150" fill="white" transform="translate(431 44)"/>
</clipPath>
</defs>
</svg>
